<svg
    id="eagerpatch"
    xmlns="http://www.w3.org/2000/svg"
    viewBox="0 0 354.74 64"
>
    <g fill="#ff9945">
        <path
            d="M9.34,9.37c-.61.6-1.16,1.24-1.71,1.89l.91.91h0l44.2,44.2c.65-.55,1.29-1.1,1.89-1.71s1.16-1.25,1.71-1.89L14.84,11.26a27,27,0,0,1,34.29,0L35.59,24.81a5.1,5.1,0,0,0,7.21,0L54.63,13h0l1.72-1.72c-.54-.64-1.1-1.27-1.71-1.87A32.05,32.05,0,0,0,9.34,9.37Z"/>
        <path
            d="M9.34,54.66a32,32,0,0,0,39.19,4.72l-3.72-3.72a27,27,0,0,1-30-2.89l9.93-9.93a5.11,5.11,0,0,0,0-7.22L11.23,49.16a27,27,0,0,1-2.89-30L4.62,15.47A32,32,0,0,0,9.34,54.66Z"/>
    </g>
    <g fill="currentColor">
        <path
            d="M93.33,34.36H86.61V44.69h15.94V46a4.25,4.25,0,0,1-4.26,4.25H79.36V14.1H102.5v1.53a4.05,4.05,0,0,1-4.06,4H86.61v9.09h11V30.1A4.25,4.25,0,0,1,93.33,34.36Z"/>
        <path
            d="M163.25,45.31a13.74,13.74,0,0,1-5,3.84,19.88,19.88,0,0,1-8.64,1.62,14.61,14.61,0,0,1-10.73-4.12A14.38,14.38,0,0,1,134.67,36V28.4a14.64,14.64,0,0,1,4.05-10.69,13.91,13.91,0,0,1,10.4-4.14q6.63,0,10.16,3.15a10.31,10.31,0,0,1,3.4,8.38l-.05.15H155.8a6,6,0,0,0-1.66-4.49,6.74,6.74,0,0,0-4.84-1.6,6.53,6.53,0,0,0-5.37,2.57,10.39,10.39,0,0,0-2,6.62V36A10.3,10.3,0,0,0,144,42.63a6.83,6.83,0,0,0,5.59,2.58,12.87,12.87,0,0,0,4.09-.52A6.29,6.29,0,0,0,156,43.37v-7h-2.69A4.27,4.27,0,0,1,149,32.1v-.75h14.23Z"/>
        <path
            d="M231.5,37.14V46a4.25,4.25,0,0,1-4.26,4.25h-3V14.1h12.31q6.24,0,9.81,3.17A10.65,10.65,0,0,1,250,25.64,10.59,10.59,0,0,1,246.37,34q-3.57,3.15-9.81,3.15Zm0-5.59h5.06a6.06,6.06,0,0,0,4.6-1.65,5.88,5.88,0,0,0,1.56-4.21,6.18,6.18,0,0,0-1.55-4.31,5.94,5.94,0,0,0-4.61-1.7H231.5Z"/>
        <path
            d="M293.52,19.68h-6.08V46a4.25,4.25,0,0,1-4.26,4.25h-3V19.68h-5.92A4.25,4.25,0,0,1,270,15.43V14.1h27.76v1.33A4.25,4.25,0,0,1,293.52,19.68Z"/>
        <path
            d="M324,38.46l0,.14q.1,5.71-3.47,8.94t-9.87,3.23a13.67,13.67,0,0,1-10.36-4.12A14.85,14.85,0,0,1,296.42,36V28.91a15,15,0,0,1,3.85-10.66,13.08,13.08,0,0,1,10.08-4.15q6.51,0,10.19,3.18t3.57,9l-.05.15h-3.45a4,4,0,0,1-3.86-2.81,5.34,5.34,0,0,0-1.29-2.3c-1.1-1.12-2.81-1.68-5.11-1.68a5.76,5.76,0,0,0-5,2.59,11.4,11.4,0,0,0-1.8,6.67V36a11.11,11.11,0,0,0,1.89,6.71,6.19,6.19,0,0,0,5.28,2.6,6.29,6.29,0,0,0,4.79-1.68,5.33,5.33,0,0,0,1.23-2.28,4,4,0,0,1,3.87-2.87Z"/>
        <path
            d="M350.48,50.25h-3v-15H334.78V46a4.25,4.25,0,0,1-4.26,4.25h-3V14.1h3a4.25,4.25,0,0,1,4.26,4.25V29.64h12.71V14.1h3a4.25,4.25,0,0,1,4.26,4.25V46A4.25,4.25,0,0,1,350.48,50.25Z"/>
        <path
            d="M221.29,50.25h-4.35a5.68,5.68,0,0,1-5.23-3.46l-4.64-11h-5.76V46a4.25,4.25,0,0,1-4.26,4.25h-3V14.1h12.51q6.18,0,9.67,2.81a9.53,9.53,0,0,1,3.49,7.86,10.57,10.57,0,0,1-1.68,5.59,11.08,11.08,0,0,1-4.43,3.5Zm-20-20h5.14A6.8,6.8,0,0,0,211,28.92a4.75,4.75,0,0,0,1.49-3.82,5.27,5.27,0,0,0-1.5-4,6.05,6.05,0,0,0-4.41-1.47h-5.26Z"/>
        <path
            d="M267.05,42.46h0l1.52,4.82a4.26,4.26,0,0,0,4.06,3h4.46L264.94,14.1h-7.42L245.33,50.25h4.44a4.25,4.25,0,0,0,4.06-3l1.5-4.8h4.25a4.26,4.26,0,0,0,4.26-4.26V36.77h-6.72l4-12.74h.15l4,12.74Z"/>
        <path
            d="M125.69,42.46h0l1.52,4.82a4.24,4.24,0,0,0,4,3h4.46L123.57,14.1h-7.42L104,50.25h4.44a4.25,4.25,0,0,0,4.06-3l1.5-4.8h4.25a4.26,4.26,0,0,0,4.26-4.26V36.77h-6.72l4-12.74h.14l4,12.74Z"/>
        <path
            d="M181.26,34.36h-6.72V44.69h15.94V46a4.25,4.25,0,0,1-4.26,4.25H167.29V14.1h23.14v1.53a4,4,0,0,1-4.05,4H174.54v9.09h11V30.1A4.26,4.26,0,0,1,181.26,34.36Z"/>
    </g>
</svg>
